<?xml version="1.0" standalone="no"?>
<!DOCTYPE svg PUBLIC "-//W3C//DTD SVG 20010904//EN"
 "http://www.w3.org/TR/2001/REC-SVG-20010904/DTD/svg10.dtd">
<svg version="1.0" xmlns="http://www.w3.org/2000/svg"
 width="700.000000pt" height="700.000000pt" viewBox="0 0 700.000000 700.000000"
 preserveAspectRatio="xMidYMid meet">
<metadata>
Created by potrace 1.14, written by Peter Selinger 2001-2017
</metadata>
<g transform="translate(0.000000,700.000000) scale(0.100000,-0.100000)"
fill="#000000" stroke="none">
<path d="M3184 6021 c-2 -2 -4 -310 -4 -683 l0 -679 -92 1 c-51 1 -478 1 -949
1 l-855 -1 0 -317 1 -318 535 -3 535 -3 128 -172 c71 -95 231 -309 357 -477
126 -168 230 -307 230 -310 0 -3 -27 -41 -60 -85 -33 -44 -66 -89 -74 -100 -8
-11 -131 -175 -273 -365 -142 -190 -323 -433 -403 -540 -80 -107 -150 -202
-157 -210 -7 -8 -73 -97 -148 -198 -110 -147 -133 -185 -123 -195 7 -7 75 -60
150 -119 76 -59 146 -114 155 -122 63 -51 184 -146 187 -146 2 0 84 107 182
237 99 131 184 245 191 253 6 8 29 38 49 65 21 28 126 167 234 310 108 143
261 346 339 450 79 105 148 190 154 190 10 0 64 -70 516 -670 124 -165 230
-305 236 -312 5 -6 96 -126 200 -267 105 -140 192 -255 195 -256 3 0 53 37
110 83 58 46 136 107 174 136 38 30 76 60 85 67 9 7 44 35 78 62 l62 49 -32
44 c-17 24 -34 46 -37 49 -5 5 -71 93 -292 390 -95 129 -79 107 -164 220 -39
52 -146 196 -238 320 -92 124 -173 232 -179 240 -7 8 -70 94 -142 190 -71 96
-138 184 -147 194 -10 11 -18 25 -18 31 0 6 160 225 355 486 l355 474 563 5
562 5 0 318 1 317 -161 0 c-88 0 -514 0 -947 0 l-788 0 -2 682 -3 682 -313 0
c-173 1 -316 -1 -318 -3z"/>
</g>
</svg>
