<?xml version="1.0" standalone="no"?>
<!DOCTYPE svg PUBLIC "-//W3C//DTD SVG 20010904//EN"
 "http://www.w3.org/TR/2001/REC-SVG-20010904/DTD/svg10.dtd">
<svg version="1.0" xmlns="http://www.w3.org/2000/svg"
 width="700.000000pt" height="700.000000pt" viewBox="0 0 700.000000 700.000000"
 preserveAspectRatio="xMidYMid meet">
<metadata>
Created by potrace 1.14, written by Peter Selinger 2001-2017
</metadata>
<g transform="translate(0.000000,700.000000) scale(0.100000,-0.100000)"
fill="#000000" stroke="none">
<path d="M3200 6158 c0 -464 0 -912 0 -995 l0 -153 -1380 0 -1380 0 0 -322 0
-323 754 1 754 1 15 -21 c386 -516 944 -1265 1007 -1351 24 -33 46 -62 49 -65
7 -6 84 -110 94 -127 5 -7 -34 -68 -96 -150 -57 -76 -196 -262 -308 -413 -228
-305 -703 -943 -813 -1090 -39 -52 -77 -101 -83 -108 -7 -7 -13 -17 -13 -21 0
-4 -8 -16 -18 -27 -15 -16 -391 -518 -448 -598 l-21 -29 86 -64 c47 -36 95
-71 106 -79 11 -8 84 -61 163 -119 78 -58 150 -105 160 -105 10 1 74 78 167
203 82 111 307 413 500 672 193 259 431 578 530 710 482 648 497 667 510 653
7 -7 113 -148 235 -313 348 -467 1276 -1711 1308 -1752 9 -12 42 -56 72 -98
30 -41 62 -75 71 -75 13 0 252 167 334 233 6 4 47 35 93 68 45 34 82 64 82 68
0 4 -15 28 -34 52 -18 24 -139 186 -268 359 -301 405 -540 726 -962 1290 -186
250 -384 515 -439 588 l-99 134 33 46 c18 26 106 144 194 262 89 118 194 260
235 315 41 55 78 105 82 110 5 6 74 98 154 205 80 107 152 205 162 217 9 12
84 112 165 222 l149 200 743 -1 c409 0 748 3 753 6 6 3 9 134 10 321 l0 315
-1379 0 -1379 0 -1 23 c0 12 -1 460 -1 995 l-1 972 -323 0 -324 0 0 -842z m2
-1937 c3 -133 -5 -472 -10 -444 -1 6 -8 18 -15 25 -7 7 -89 114 -180 238 -92
124 -173 232 -180 240 -22 27 -57 78 -57 84 0 3 99 5 220 5 l219 -1 3 -147z
m1088 142 c0 -5 -438 -593 -442 -593 -2 0 -1 493 1 577 1 21 2 21 221 21 121
0 220 -2 220 -5z"/>
</g>
</svg>
